<?xml version="1.0" encoding="UTF-8" standalone="no"?>
<svg
   width="750"
   height="706.35"
   version="1.1"
   id="svg19"
   sodipodi:docname="lion-head-white.svg"
   inkscape:version="1.1.1 (3bf5ae0d25, 2021-09-20)"
   xmlns:inkscape="http://www.inkscape.org/namespaces/inkscape"
   xmlns:sodipodi="http://sodipodi.sourceforge.net/DTD/sodipodi-0.dtd"
   xmlns="http://www.w3.org/2000/svg"
   xmlns:svg="http://www.w3.org/2000/svg">
  <sodipodi:namedview
     id="namedview21"
     pagecolor="#505050"
     bordercolor="#eeeeee"
     borderopacity="1"
     inkscape:pageshadow="0"
     inkscape:pageopacity="0"
     inkscape:pagecheckerboard="0"
     showgrid="false"
     inkscape:zoom="1.2359312"
     inkscape:cx="375.02086"
     inkscape:cy="353.17499"
     inkscape:window-width="2560"
     inkscape:window-height="1369"
     inkscape:window-x="-8"
     inkscape:window-y="-8"
     inkscape:window-maximized="1"
     inkscape:current-layer="g17" />
  <title
     id="title2">lion head white</title>
  <metadata
     id="metadata3149">image/svg+xml</metadata>
  <defs
     id="defs7">
    <clipPath
       clipPathUnits="userSpaceOnUse"
       id="clipPath3159">
      <path
         d="m13.33333,2291.17627l2500.00017,0l0,-2354.51001l-2500.00017,0l0,2354.51001z"
         id="path3161" />
    </clipPath>
  </defs>
  <g
     id="g17"
     transform="translate(1.618213,-4.0455325)">
    <title
       id="title9">Layer 1</title>
    <g
       id="g3151"
       transform="matrix(1.25,0,0,-1.25,14.563913,702.30447)">
      <g
         id="g3153"
         transform="matrix(0.23999999,0,0,0.23999999,2.4000001,-0.80003297)">
        <g
           id="g3155">
          <g
             id="g3157"
             clip-path="url(#clipPath3159)">
            <path
               d="m 1150.8433,1637.7964 h -50.4101 c 39.7901,49.0699 43.7801,191.01 43.7801,191.01 l -117.3999,-78.9301 c -55.05003,0 151.6899,204.2901 163.8299,151.8901 40.44,-174.6501 -39.8,-263.97 -39.8,-263.97 m -454.9979,-122.0501 -46.42999,61.0301 136.63299,41.12 z m -245.40704,-164.49 -37.14002,75.62 74.28101,19.9001 z m 1528.15494,-172 c -443.95,-3.5399 -686.26,91.97 -700.4001,120.2701 215.7801,-104.36 688.0201,-26.5301 877.2704,-88.4301 0,0 -70.75,155.64 -183.9503,219.3101 -113.1901,63.67 -642.92,-8.84 -642.92,-8.84 413.8801,135.3099 811.8403,37.1499 811.8403,37.1499 -114.0802,342.24 -455.4502,267.0701 -455.4502,267.0701 44.23,45.99 244.08,19.4499 244.08,19.4499 l 86.67,47.76 c -169.7902,159.1801 -435.1001,128.6701 -435.1001,128.6701 15.9301,21.23 159.1799,27.86 159.1799,27.86 l 86.2301,50.41 c -153.88,67.6398 -363.4701,13.26 -363.4701,13.26 1.3301,21.22 107.4501,37.1498 107.4501,37.1498 l 43.77,33.1601 c -115.4,34.48 -277.2399,-9.29 -277.2399,-9.29 -5.3001,15.9199 45.0999,68.98 45.0999,68.98 -144.5899,2.6499 -237.89,-96.83 -237.89,-96.83 -4.42,15.9101 0,57.9201 0,57.9201 -203.40288,-95.5099 -236.99987,-321.9101 -236.99987,-321.9101 l -109.66003,2.6601 -137.07495,-118.51 -8.84003,-29.18 c -134.42511,-62.79 -198.9801,-93.7401 -253.8121,-126.4701 -37.14499,-45.9799 -23.875,-100.8099 -23.875,-100.8099 l 78.26199,-151.66 218.87506,-21.22 9.28503,-45.11 -192.34408,2.66 31.83603,-91.53 -31.83603,-87.55 78.26608,-5.31 26.53101,-83.57101 35.81598,31.841 47.75402,-66.32898 82.24598,94.17902 -1.33197,15.91987 h 43.78198 l 168.46399,172.4501 -25.20301,104.7899 62.34802,22.5601 33.1619,111.42 -65.00192,148.57 71.63182,41.12 -17.2499,-64.99 61.0299,-137.97 -49.53,-134.42 -45.09679,-15.9199 22.10699,-90.2001 -207.82201,-225.50899 -30.07001,4.41901 C 425.67331,535.44336 643.22437,222.38135 643.22437,222.38135 c 35.375,189.246 173.336,300.68298 173.336,300.68298 -86.66797,120.27807 -44.219,274.15307 -44.219,274.15307 26.53101,-180.41009 134.422,-297.14505 134.422,-297.14505 L 1009.3454,622.11529 C 903.22437,758.30731 919.14636,885.65436 919.14636,885.65436 1042.9533,574.36529 1189.7533,538.98639 1189.7533,538.98639 l 49.52,125.57495 c -203.4,175.10498 -194.55,309.52502 -194.55,309.52502 145.03,-318.36505 454.5499,-351.97107 454.5499,-351.97107 l 17.6899,160.94904 c -311.2999,157.41205 -351.9699,309.53197 -351.9699,309.53197 288.3,-300.67998 587.2,-323.67589 587.2,-323.67589 -22.9899,33.60895 -21.2299,205.16595 -21.2299,205.16595 -443.9301,90.21004 -532.36,282.99004 -532.36,282.99004 383.7999,-320.14006 734.01,-189.25 956.8601,-282.99004 -10.6099,70.76004 -176.8701,205.17004 -176.8701,205.17004"
               id="path3163"
               fill-rule="nonzero"
               fill="#f7efef" />
          </g>
        </g>
      </g>
    </g>
  </g>
</svg>
